<svg width="70" height="70" viewBox="0 0 70 70" fill="none" xmlns="http://www.w3.org/2000/svg">
<rect x="0.5" y="0.5" width="69" height="69" rx="34.5" stroke="white"/>
<mask id="mask0_2415_3798" style="mask-type:alpha" maskUnits="userSpaceOnUse" x="20" y="20" width="30" height="30">
<rect x="20" y="20" width="30" height="30" fill="#D9D9D9"/>
</mask>
<g mask="url(#mask0_2415_3798)">
<path d="M35 48.75L31.25 45H26.25C25.5625 45 24.974 44.7552 24.4844 44.2656C23.9948 43.776 23.75 43.1875 23.75 42.5V25C23.75 24.3125 23.9948 23.724 24.4844 23.2344C24.974 22.7448 25.5625 22.5 26.25 22.5H43.75C44.4375 22.5 45.026 22.7448 45.5156 23.2344C46.0052 23.724 46.25 24.3125 46.25 25V42.5C46.25 43.1875 46.0052 43.776 45.5156 44.2656C45.026 44.7552 44.4375 45 43.75 45H38.75L35 48.75ZM26.25 42.5H32.25L35 45.25L37.75 42.5H43.75V25H26.25V42.5ZM35 40C36.7917 40 38.2812 39.375 39.4687 38.125C40.6562 36.875 41.25 35.4167 41.25 33.75V27.5H35C33.3125 27.5 31.849 28.0938 30.6094 29.2813C29.3698 30.4688 28.75 31.9583 28.75 33.75C28.75 34.375 28.8385 34.9688 29.0156 35.5313C29.1927 36.0938 29.4375 36.6146 29.75 37.0938L29.25 37.5937C29 37.8437 28.875 38.1354 28.875 38.4688C28.875 38.8021 29 39.0938 29.25 39.3438C29.5 39.5938 29.7865 39.7135 30.1094 39.7031C30.4323 39.6927 30.7292 39.5729 31 39.3438L31.4688 38.9062C31.9688 39.2604 32.5156 39.5313 33.1094 39.7188C33.7031 39.9063 34.3333 40 35 40ZM35 37.5C34.6875 37.5 34.3906 37.4583 34.1094 37.375C33.8281 37.2917 33.5625 37.1875 33.3125 37.0625L36.5625 33.8125C36.8125 33.5625 36.9375 33.2656 36.9375 32.9219C36.9375 32.5781 36.8125 32.2813 36.5625 32.0312C36.3125 31.7812 36.0208 31.6563 35.6875 31.6563C35.3542 31.6563 35.0625 31.7812 34.8125 32.0312L31.5625 35.2813C31.4583 35.0521 31.3802 34.8073 31.3281 34.5469C31.276 34.2865 31.25 34.0208 31.25 33.75C31.25 32.6667 31.625 31.7708 32.375 31.0625C33.125 30.3542 34 30 35 30H38.75V33.75C38.75 34.7917 38.3854 35.6771 37.6562 36.4062C36.9271 37.1354 36.0417 37.5 35 37.5Z" fill="#9BE08D"/>
</g>
</svg>
