<svg width="70" height="70" viewBox="0 0 70 70" fill="none" xmlns="http://www.w3.org/2000/svg">
<rect x="0.5" y="0.5" width="69" height="69" rx="34.5" stroke="white"/>
<mask id="mask0_2415_3767" style="mask-type:alpha" maskUnits="userSpaceOnUse" x="20" y="20" width="30" height="30">
<rect x="20" y="20" width="30" height="30" fill="#D9D9D9"/>
</mask>
<g mask="url(#mask0_2415_3767)">
<path d="M33.75 46.25V36.2813C32.4167 36.2813 31.1354 36.026 29.9063 35.5156C28.6771 35.0052 27.5938 34.2813 26.6563 33.3438C25.7188 32.4063 25 31.3229 24.5 30.0938C24 28.8646 23.75 27.5833 23.75 26.25V23.75H26.25C27.5625 23.75 28.8333 24.0052 30.0625 24.5156C31.2917 25.026 32.375 25.75 33.3125 26.6875C33.9583 27.3333 34.4948 28.0417 34.9219 28.8125C35.349 29.5833 35.6771 30.4063 35.9063 31.2813C36.0104 31.1354 36.125 30.9948 36.25 30.8594C36.375 30.724 36.5104 30.5833 36.6562 30.4375C37.5937 29.5 38.6771 28.776 39.9063 28.2656C41.1354 27.7552 42.4167 27.5 43.75 27.5H46.25V30C46.25 31.3333 45.9948 32.6146 45.4844 33.8437C44.974 35.0729 44.25 36.1563 43.3125 37.0938C42.375 38.0313 41.2969 38.75 40.0781 39.25C38.8594 39.75 37.5833 40 36.25 40V46.25H33.75ZM33.75 33.75C33.75 32.75 33.5573 31.7969 33.1719 30.8906C32.7865 29.9844 32.2396 29.1771 31.5312 28.4688C30.8229 27.7604 30.0156 27.2135 29.1094 26.8281C28.2031 26.4427 27.25 26.25 26.25 26.25C26.25 27.25 26.4375 28.2083 26.8125 29.125C27.1875 30.0417 27.7292 30.8542 28.4375 31.5625C29.1458 32.2708 29.9583 32.8125 30.875 33.1875C31.7917 33.5625 32.75 33.75 33.75 33.75ZM36.25 37.5C37.25 37.5 38.2031 37.3125 39.1094 36.9375C40.0156 36.5625 40.8229 36.0208 41.5313 35.3125C42.2396 34.6042 42.7865 33.7917 43.1719 32.875C43.5573 31.9583 43.75 31 43.75 30C42.75 30 41.7917 30.1927 40.875 30.5781C39.9583 30.9635 39.1458 31.5104 38.4375 32.2188C37.7292 32.9271 37.1875 33.7344 36.8125 34.6406C36.4375 35.5469 36.25 36.5 36.25 37.5Z" fill="#9BE08D"/>
</g>
</svg>
