<svg width="70" height="70" viewBox="0 0 70 70" fill="none" xmlns="http://www.w3.org/2000/svg">
<rect x="0.5" y="0.5" width="69" height="69" rx="34.5" stroke="white"/>
<mask id="mask0_2415_3787" style="mask-type:alpha" maskUnits="userSpaceOnUse" x="20" y="20" width="30" height="30">
<rect x="20" y="20" width="30" height="30" fill="#D9D9D9"/>
</mask>
<g mask="url(#mask0_2415_3787)">
<path d="M29.25 41.5625C28.375 42.2917 27.4635 42.625 26.5156 42.5625C25.5677 42.5 24.7396 42.1771 24.0312 41.5938C23.3229 41.0104 22.8385 40.2448 22.5781 39.2969C22.3177 38.349 22.4896 37.375 23.0937 36.375L25.4375 32.5C24.9166 32.0417 24.5052 31.4896 24.2031 30.8438C23.901 30.1979 23.75 29.5 23.75 28.75C23.75 27.375 24.2396 26.1979 25.2187 25.2188C26.1979 24.2396 27.375 23.75 28.75 23.75C30.125 23.75 31.3021 24.2396 32.2812 25.2188C33.2604 26.1979 33.75 27.375 33.75 28.75C33.75 30.125 33.2604 31.3021 32.2812 32.2813C31.3021 33.2604 30.125 33.75 28.75 33.75C28.5625 33.75 28.375 33.7396 28.1875 33.7187C28 33.6979 27.8229 33.6667 27.6562 33.625L25.25 37.6875C25.0208 38.0625 24.9479 38.4323 25.0312 38.7969C25.1146 39.1615 25.2916 39.4583 25.5625 39.6875C25.8333 39.9167 26.1562 40.0469 26.5312 40.0781C26.9062 40.1094 27.2708 39.9792 27.625 39.6875L40.75 28.4063C41.625 27.6771 42.5417 27.349 43.5 27.4219C44.4583 27.4948 45.2917 27.8229 46 28.4063C46.7083 28.9896 47.1875 29.7552 47.4375 30.7031C47.6875 31.651 47.5104 32.625 46.9062 33.625L44.5625 37.5C45.0833 37.9583 45.4948 38.5104 45.7969 39.1562C46.0989 39.8021 46.25 40.5 46.25 41.25C46.25 42.625 45.7604 43.8021 44.7812 44.7813C43.8021 45.7604 42.625 46.25 41.25 46.25C39.875 46.25 38.6979 45.7604 37.7187 44.7813C36.7396 43.8021 36.25 42.625 36.25 41.25C36.25 39.875 36.7396 38.6979 37.7187 37.7188C38.6979 36.7396 39.875 36.25 41.25 36.25C41.4375 36.25 41.6198 36.2604 41.7969 36.2813C41.9739 36.3021 42.1458 36.3333 42.3125 36.375L44.75 32.3125C44.9792 31.9375 45.0521 31.5677 44.9687 31.2031C44.8854 30.8385 44.7083 30.5417 44.4375 30.3125C44.1667 30.0833 43.8437 29.9531 43.4687 29.9219C43.0937 29.8906 42.7292 30.0208 42.375 30.3125L29.25 41.5625ZM30.5156 30.5156C31.0052 30.026 31.25 29.4375 31.25 28.75C31.25 28.0625 31.0052 27.474 30.5156 26.9844C30.026 26.4948 29.4375 26.25 28.75 26.25C28.0625 26.25 27.4739 26.4948 26.9844 26.9844C26.4948 27.474 26.25 28.0625 26.25 28.75C26.25 29.4375 26.4948 30.026 26.9844 30.5156C27.4739 31.0052 28.0625 31.25 28.75 31.25C29.4375 31.25 30.026 31.0052 30.5156 30.5156ZM43.0156 43.0156C43.5052 42.526 43.75 41.9375 43.75 41.25C43.75 40.5625 43.5052 39.974 43.0156 39.4844C42.526 38.9948 41.9375 38.75 41.25 38.75C40.5625 38.75 39.9739 38.9948 39.4844 39.4844C38.9948 39.974 38.75 40.5625 38.75 41.25C38.75 41.9375 38.9948 42.526 39.4844 43.0156C39.9739 43.5052 40.5625 43.75 41.25 43.75C41.9375 43.75 42.526 43.5052 43.0156 43.0156Z" fill="#9BE08D"/>
</g>
</svg>
