<svg width="1828" height="1152" viewBox="0 0 1828 1152" fill="none" xmlns="http://www.w3.org/2000/svg">
<g opacity="0.02">
<path d="M1276.43 665.509C1074.96 704.147 1061.03 844.325 1080.97 919.257C1082.81 926.159 1088.55 931.335 1095.56 932.709C1259.45 964.84 1284.7 769.518 1276.43 665.509Z" fill="#F0F9F5"/>
<path d="M1826.62 408.082C1625.15 446.72 1611.22 586.898 1631.17 661.83C1633.01 668.732 1638.75 673.908 1645.76 675.282C1809.65 707.413 1834.9 512.091 1826.62 408.082Z" fill="#F0F9F5"/>
<path d="M477.861 422.583C276.39 461.222 262.46 601.399 282.405 676.332C284.242 683.233 289.988 688.409 296.997 689.783C460.888 721.915 486.135 526.592 477.861 422.583Z" fill="#F0F9F5"/>
<path d="M753.413 502.351C551.942 540.989 538.013 681.167 557.958 756.099C559.795 763.001 565.54 768.177 572.549 769.551C736.44 801.682 761.687 606.36 753.413 502.351Z" fill="#F0F9F5"/>
<path d="M227.66 733.633C26.1892 772.272 12.2595 912.449 32.2043 987.381C34.0414 994.283 39.7871 999.459 46.7957 1000.83C210.687 1032.96 235.934 837.642 227.66 733.633Z" fill="#F0F9F5"/>
<path d="M1725.1 770.651C1523.63 809.289 1509.7 949.467 1529.65 1024.4C1531.48 1031.3 1537.23 1036.48 1544.24 1037.85C1708.13 1069.98 1733.38 874.66 1725.1 770.651Z" fill="#F0F9F5"/>
<path d="M1003.73 727.057C805.837 781.115 802.757 921.949 828.42 995.12C830.784 1001.86 836.912 1006.58 844.005 1007.41C1009.89 1026.81 1020 830.119 1003.73 727.057Z" fill="#F0F9F5"/>
<path d="M201.528 406.948C3.6353 461.005 0.555163 601.839 26.218 675.011C28.5818 681.75 34.7095 686.468 41.8032 687.298C207.684 706.696 217.796 510.009 201.528 406.948Z" fill="#F0F9F5"/>
<path d="M1551.07 531.356C1349.6 569.995 1335.67 710.172 1355.61 785.104C1357.45 792.006 1363.2 797.182 1370.2 798.556C1534.1 830.687 1559.34 635.365 1551.07 531.356Z" fill="#F0F9F5"/>
<path d="M1174.48 136C973.004 174.638 959.074 314.816 979.019 389.748C980.856 396.65 986.602 401.826 993.61 403.2C1157.5 435.331 1182.75 240.009 1174.48 136Z" fill="#F0F9F5"/>
<path d="M898.32 174.291C696.848 212.929 682.919 353.107 702.864 428.039C704.701 434.94 710.446 440.117 717.455 441.491C881.346 473.622 906.593 278.3 898.32 174.291Z" fill="#F0F9F5"/>
<path d="M1507.56 248.551C1306.09 287.189 1292.16 427.367 1312.1 502.299C1313.94 509.201 1319.69 514.377 1326.7 515.751C1490.59 547.882 1515.83 352.56 1507.56 248.551Z" fill="#F0F9F5"/>
<path d="M1448.13 0C1246.66 38.6383 1232.73 178.816 1252.67 253.748C1254.51 260.65 1260.26 265.826 1267.26 267.2C1431.16 299.331 1456.4 104.009 1448.13 0Z" fill="#F0F9F5"/>
<path d="M782.42 806.91C580.949 845.549 567.019 985.726 586.964 1060.66C588.801 1067.56 594.547 1072.74 601.555 1074.11C765.447 1106.24 790.693 910.919 782.42 806.91Z" fill="#F0F9F5"/>
<path d="M477.861 770.651C276.39 809.289 262.46 949.467 282.405 1024.4C284.242 1031.3 289.988 1036.48 296.997 1037.85C460.888 1069.98 486.135 874.66 477.861 770.651Z" fill="#F0F9F5"/>
<path d="M1007.21 444.336C805.743 482.974 791.813 623.152 811.758 698.084C813.595 704.986 819.341 710.162 826.349 711.536C990.241 743.667 1015.49 548.345 1007.21 444.336Z" fill="#F0F9F5"/>
<path d="M1433.01 882.372C1228.77 901.599 1201.52 1039.81 1214.22 1116.3C1215.39 1123.35 1220.62 1129.05 1227.46 1131.08C1387.54 1178.72 1431.32 986.696 1433.01 882.372Z" fill="#F0F9F5"/>
<path d="M1212.36 406.29C1021.58 481.69 1033.94 622.015 1067.46 691.936C1070.54 698.376 1077.15 702.395 1084.29 702.443C1251.3 703.563 1239.81 506.951 1212.36 406.29Z" fill="#F0F9F5"/>
</g>
</svg>
